<svg id="Layer_1" data-name="Layer 1" xmlns="http://www.w3.org/2000/svg" width="768" height="368" viewBox="0 0 768 368"><defs><style>.cls-1{fill:#afafaf;opacity:0.2;}.cls-2{fill:#fff;}.cls-3{fill:#241f20;}.cls-4,.cls-5{font-size:17.91px;font-family:UTM-Neo-Sans-Intel, UTM Neo Sans Intel;}.cls-5{fill:gray;}</style></defs><title>Artboard 1</title><rect class="cls-1" width="768" height="368" rx="20"/><rect class="cls-2" x="12.1" y="9.6" width="742.4" height="286.43" rx="15"/><rect x="307.3" y="32.9" width="5.5" height="1.59"/><rect x="307.3" y="36.8" width="5.5" height="1.59"/><rect x="307.3" y="40.8" width="5.5" height="1.59"/><rect x="307.3" y="44.8" width="5.5" height="1.59"/><rect x="307.3" y="48.8" width="5.5" height="1.59"/><rect x="307.3" y="52.7" width="5.5" height="1.59"/><path d="M305.4,25.3h-1.6v5.6h-2.4V25.3h-1.5v5.6h-2.4V25.3h-1.6v5.6h-2.3V25.3H292v5.6h-2.3V25.3h-1.6v5.6h-2.4V25.3h-1.5v5.6h-2v2h-5.5v1.6h5.5v2.3h-5.5v1.6h5.5v2.4h-5.5v1.6h5.5v2.4h-5.5v1.6h5.5v2.4h-5.5v1.6h5.5v2.3h-5.5v1.6h5.5v2h25.1V30.9h-1.9Zm-20.6,9.3,1.1-1.1,1.1,1.1-1.1,1.2ZM300.3,52h-11a2.4,2.4,0,0,1-2.4-2.4V38.4a2.3,2.3,0,0,1,2.4-2.3h11a2.3,2.3,0,0,1,2.3,2.3V49.6A2.3,2.3,0,0,1,300.3,52Zm3.3,1.7-1.1-1.1,1.1-1.2,1.2,1.2Z"/><rect x="303.8" y="56.3" width="1.6" height="5.56"/><rect x="299.9" y="56.3" width="1.6" height="5.56"/><rect x="295.9" y="56.3" width="1.6" height="5.56"/><rect x="292" y="56.3" width="1.6" height="5.56"/><rect x="288.1" y="56.3" width="1.6" height="5.56"/><rect x="284.2" y="56.3" width="1.6" height="5.56"/><path d="M69.1,29.2H43.5A2.7,2.7,0,0,0,40.9,32V51.5a2.7,2.7,0,0,0,2.6,2.8H69.1a2.6,2.6,0,0,0,2.5-2.8V32A2.6,2.6,0,0,0,69.1,29.2ZM56.3,52.9A1.3,1.3,0,0,1,55,51.5a1.3,1.3,0,1,1,2.6,0A1.3,1.3,0,0,1,56.3,52.9Zm12.8-4.2H43.5V32H69.1Z"/><path d="M70.4,128.9H65.3l-3-3.1h0a2.8,2.8,0,0,0-1.7-.7H54.3a2.3,2.3,0,0,0-1.8.8h0l-3,3H44.4a2.5,2.5,0,0,0-2.5,2.5v15a2.6,2.6,0,0,0,2.5,2.6h26a2.6,2.6,0,0,0,2.5-2.6v-15A2.5,2.5,0,0,0,70.4,128.9Zm-13,16.3a6.9,6.9,0,1,1,6.9-6.9A6.9,6.9,0,0,1,57.4,145.2Zm12.5-12.3a1,1,0,0,1-1-1.1,1,1,0,0,1,2,0A1,1,0,0,1,69.9,132.9Z"/><path d="M57.4,133.1a5.2,5.2,0,1,0,0,10.4,5.2,5.2,0,0,0,0-10.4Z"/><path d="M72,222H70.8v-2.6a1.2,1.2,0,0,0-1.2-1.1H42a1.2,1.2,0,0,0-1.2,1.1v13.8a1.2,1.2,0,0,0,1.2,1.1H69.6a1.2,1.2,0,0,0,1.2-1.1v-2.6H72a1.2,1.2,0,0,0,1.3-1.2v-6.3A1.2,1.2,0,0,0,72,222Zm-16.6,8.9a1.3,1.3,0,0,1-1,.4h-9a1.2,1.2,0,0,1-1.3-1.1v-7.8a1.2,1.2,0,0,1,1.3-1.2h6.8a1.3,1.3,0,0,1,1.2.9l2.2,7.8A1.2,1.2,0,0,1,55.4,230.9Z"/><path class="cls-3" d="M298.2,222.9h0l3.2-4.6h-.1l.2-.4a.8.8,0,0,0-.9-.8.9.9,0,0,0-.8.4h0l-3.2,4.7h0a10.9,10.9,0,0,0-3.6-.6,10.5,10.5,0,0,0-3.6.6h0l-3.4-4.8h0l-.6-.2a.8.8,0,0,0-.9.8.6.6,0,0,0,.1.4h0l3.1,4.6h0a9.5,9.5,0,0,0-5,6.7h20.6A9.4,9.4,0,0,0,298.2,222.9Zm-8.5,3.6h-1.9v-1.7h1.9Zm8.5,0h-1.8v-1.7h1.8Z"/><path class="cls-3" d="M307.6,229.6a3.3,3.3,0,0,0-2.5,1.2v9.8a3.1,3.1,0,0,0,2.5,1.3,2.9,2.9,0,0,0,2.5-1.3v-9.8A3,3,0,0,0,307.6,229.6Z"/><path class="cls-3" d="M278.4,229.6a3.3,3.3,0,0,0-2.5,1.2v9.8a3.1,3.1,0,0,0,2.5,1.3,2.9,2.9,0,0,0,2.5-1.3v-9.8A3,3,0,0,0,278.4,229.6Z"/><path class="cls-3" d="M282.9,244.9h0v.4a2.8,2.8,0,0,0,2.9,2.6h.4v5.2a3.2,3.2,0,0,0,2.5,1.2,3,3,0,0,0,2.5-1.2v-5.2h3.7v5.2a3,3,0,0,0,2.4,1.2,3,3,0,0,0,2.5-1.2v-5.2h.4a2.8,2.8,0,0,0,2.9-2.6.8.8,0,0,0-.1-.4h.1V231.2H282.9Z"/><path d="M546.3,40.1V32.7a1.4,1.4,0,0,0-1.3-1.5h-4.2V28.4a1.4,1.4,0,0,0-1.4-1.4h-8.2a1.4,1.4,0,0,0-1.4,1.4v2.8h-4.2a1.4,1.4,0,0,0-1.3,1.5v7.4c-5.2,1.8-8.3,4.8-8.3,8.2s4.8,7.9,12.4,9.4v2a1.4,1.4,0,0,0,1.4,1.4.8.8,0,0,0,.7-.2l4.2-2.8a1.6,1.6,0,0,0,.4-2l-.4-.4-4.2-2.9a1.4,1.4,0,0,0-1.9.5,1.9,1.9,0,0,0-.2.7v.8c-5.7-1.2-9.7-3.8-9.7-6.5s2.2-3.8,5.6-5.2v3.8a1.3,1.3,0,0,0,1.3,1.4H545a1.3,1.3,0,0,0,1.3-1.4V43.1c3.4,1.5,5.6,3.4,5.6,5.2s-5.4,6.5-13.9,7.2a1.4,1.4,0,0,0-1.4,1.4,1.5,1.5,0,0,0,1.5,1.4h.1c9.5-.7,16.4-4.9,16.4-10C554.6,44.9,551.5,41.9,546.3,40.1Zm-11,4a4.2,4.2,0,0,1-4.1-4.3,4.1,4.1,0,1,1,8.2,0A4.2,4.2,0,0,1,535.3,44.1Z"/><path d="M542.6,125.1H531l-8.6,9.6v19.1a3,3,0,0,0,2.9,3.2h17.4a3,3,0,0,0,2.9-3.2V128.3A3,3,0,0,0,542.6,125.1Zm-8.7,9.6H531v-6.4h2.9Zm4.3,0h-2.9v-6.4h2.9Zm4.4,0h-2.9v-6.4h2.9Z"/><path d="M301.4,125.1v43.3H284.6V125.1Zm-1.7,41.5V126.9H286.3v39.7Z"/><path d="M294.7,159.4v5.4h-6.8v-5.4ZM293,163v-1.8h-3.4V163Z"/><path d="M294.7,151.9v5.4h-6.8v-5.4Zm-1.7,3.6v-1.8h-3.4v1.8Z"/><path d="M294.7,144v5.4h-6.8V144Zm-1.7,3.6v-1.8h-3.4v1.8Z"/><path d="M294.7,136.4v5.4h-6.8v-5.4ZM293,140v-1.8h-3.4V140Z"/><path d="M294.7,128.7v5.4h-6.8v-5.4Zm-1.7,3.6v-1.8h-3.4v1.8Z"/><rect x="296.3" y="128.7" width="4.2" height="1.8"/><rect x="296.3" y="132.5" width="4.2" height="1.8"/><rect x="296.3" y="136.3" width="4.2" height="1.8"/><rect x="296.3" y="140.1" width="4.2" height="1.8"/><rect x="296.3" y="143.9" width="4.2" height="1.8"/><rect x="296.3" y="147.7" width="4.2" height="1.8"/><rect x="296.3" y="151.6" width="4.2" height="1.8"/><rect x="296.3" y="155.4" width="4.2" height="1.8"/><rect x="296.3" y="159.2" width="4.2" height="1.8"/><rect x="296.3" y="163" width="4.2" height="1.8"/><text class="cls-4" transform="translate(87.8 42.4)">Màn hình</text><text class="cls-4" transform="translate(87.8 69.2)">7,6 inch<tspan x="0" y="21.5">(2208 x 1768)</tspan></text><text class="cls-4" transform="translate(87.8 137.3)">Camera phía sau</text><text class="cls-4" transform="translate(87.8 229.2)">Dung lượng Pin<tspan x="0" y="25">4400 mAh</tspan></text><text class="cls-5" transform="translate(109.8 326.4)">Tình trạng thị trường<tspan x="28.8" y="23">Đã phát hành</tspan></text><text class="cls-5" transform="translate(536.1 326.4)">Ngày phát hành<tspan x="11.8" y="23">11/08/2021</tspan></text><text class="cls-4" transform="translate(328.8 40.3)">Bộ xử lý<tspan x="0" y="25">Snapdragon 888 5nm</tspan><tspan x="0" y="46.5">Hỗ trợ 5G</tspan></text><text class="cls-4" transform="translate(328.8 137.3)">Ram<tspan x="0" y="25">12 GB</tspan></text><text class="cls-4" transform="translate(328.8 229.3)">Hệ điều hành<tspan x="0" y="25">Android 11</tspan></text><text class="cls-4" transform="translate(569.8 37.3)">Camera trước<tspan x="0" y="25">10 MP + 4 MP</tspan></text><text class="cls-4" transform="translate(569.8 137.3)">Bộ nhớ<tspan x="0" y="25">256/512 GB</tspan></text><path d="M94.2,163.2a.4.4,0,0,1-.1.3H92.7a.4.4,0,0,1-.1-.3V152l-2.3,1h-.2c-.2,0-.2-.1-.2-.2v-.9a.2.2,0,0,1,.2-.2l2.7-1.3h1.3c.1,0,.1.1.1.2Z"/><path d="M107.5,153.4a2.3,2.3,0,0,1-.2,1.2,4.1,4.1,0,0,1-.7,1.1l-1.4,1.1-1.7,1.2a4.9,4.9,0,0,0-1.5,1.2,2.8,2.8,0,0,0-.8,1.2,3.2,3.2,0,0,0-.2,1.4v.4h6c.2,0,.4.1.4.3v1H99.6c0-.1-.1-.2-.1-.3v-1.4a5.7,5.7,0,0,1,.3-1.8,4.6,4.6,0,0,1,.9-1.5,5.6,5.6,0,0,1,1.6-1.4l1.8-1.2a11.6,11.6,0,0,0,1.5-1.3,2.1,2.1,0,0,0,.3-1.2,1.8,1.8,0,0,0-.2-1.1,1.2,1.2,0,0,0-.8-.6l-1.2-.2h-1.2l-1.3.3-1,.3H100a.4.4,0,0,1-.1-.3v-.8h.2l1-.4,1.3-.3,1.3-.2a4.7,4.7,0,0,1,1.7.3,2.3,2.3,0,0,1,1.2.6,2.2,2.2,0,0,1,.7.9A6.1,6.1,0,0,1,107.5,153.4Z"/><path d="M120.8,163.2c0,.1-.1.2-.1.3h-1.4a.4.4,0,0,1-.1-.3V152.6h-.1l-2.2,4.6a2.2,2.2,0,0,1-.7.9l-.9.2-.8-.2a2.2,2.2,0,0,1-.7-.9l-2.2-4.6h-.1v10.6a.4.4,0,0,1-.1.3H110a.4.4,0,0,1-.1-.3V150.8a.5.5,0,0,1,.2-.4h1.5a.6.6,0,0,1,.6.3l2.9,6.1.2.2c.1,0,.2,0,.3-.2l2.9-6.1.2-.3h1.8l.2.2c0,.1.1.2.1.3Z"/><path d="M131.4,154.3c0,2.6-1.6,4-5,4h-1.8v5a.4.4,0,0,1-.1.3h-1.4a.4.4,0,0,1-.1-.3V150.7a.4.4,0,0,1,.4-.4l3-.2a9.5,9.5,0,0,1,2.6.4,3.5,3.5,0,0,1,1.8,1.3,3.8,3.8,0,0,1,.6,2.2Zm-1.6,0V154a2.3,2.3,0,0,0-.8-1.9,4.5,4.5,0,0,0-2.6-.6h-1.8v5.2h1.8a5.6,5.6,0,0,0,2-.3,1.8,1.8,0,0,0,1.1-.8A3.3,3.3,0,0,0,129.8,154.3Z"/><path d="M145.7,157a.3.3,0,0,1-.3.3h-3v3.2h-1.1a.3.3,0,0,1-.3-.3v-3h-3a.3.3,0,0,1-.3-.3v-1.1h3.2v-3.1a.3.3,0,0,1,.3-.3h1.1v3.3h3.2V157Z"/><path d="M157.6,163.2a.4.4,0,0,1-.1.3h-1.4a.4.4,0,0,1-.1-.3V152l-2.3,1h-.3c-.1,0-.1-.1-.1-.2v-.9c0-.1,0-.2.2-.2l2.7-1.3h1.3c.1,0,.1.1.1.2Z"/><path d="M170.9,153.4a4.3,4.3,0,0,1-.2,1.2,4.1,4.1,0,0,1-.7,1.1l-1.4,1.1-1.7,1.2a4.9,4.9,0,0,0-1.5,1.2,2.8,2.8,0,0,0-.8,1.2,3.2,3.2,0,0,0-.2,1.4v.4h6c.2,0,.4.1.4.3v1H163c0-.1-.1-.2-.1-.3v-1.4a5.7,5.7,0,0,1,.3-1.8,4.6,4.6,0,0,1,.9-1.5,5.6,5.6,0,0,1,1.6-1.4l1.8-1.2a11.6,11.6,0,0,0,1.5-1.3,2.1,2.1,0,0,0,.3-1.2,3.1,3.1,0,0,0-.2-1.1,1.2,1.2,0,0,0-.8-.6l-1.2-.2h-1.3l-1.2.3-1,.3h-.2a.4.4,0,0,1-.1-.3v-.8h.2l1-.4,1.3-.3,1.3-.2a4.7,4.7,0,0,1,1.7.3,2.7,2.7,0,0,1,1.2.6,2.2,2.2,0,0,1,.7.9A6.1,6.1,0,0,1,170.9,153.4Z"/><path d="M184.2,163.2c0,.1-.1.2-.1.3h-1.4a.4.4,0,0,1-.1-.3V152.6h-.1l-2.2,4.6a2.2,2.2,0,0,1-.7.9l-.9.2-.8-.2a2.2,2.2,0,0,1-.7-.9l-2.3-4.6h0v10.6a.4.4,0,0,1-.1.3h-1.4a.4.4,0,0,1-.1-.3V150.8a.5.5,0,0,1,.2-.4H175a.6.6,0,0,1,.6.3l2.9,6.1.2.2c.1,0,.2,0,.2-.2l3-6.1.2-.3h1.8l.2.2c0,.1.1.2.1.3Z"/><path d="M194.8,154.3c0,2.6-1.7,4-5,4H188v5a.4.4,0,0,1-.1.3h-1.4a.4.4,0,0,1-.1-.3V150.7a.4.4,0,0,1,.4-.4l3-.2a9.5,9.5,0,0,1,2.6.4,3.5,3.5,0,0,1,1.8,1.3,3.8,3.8,0,0,1,.6,2.2Zm-1.6,0V154a2.3,2.3,0,0,0-.8-1.9,4.5,4.5,0,0,0-2.6-.6H188v5.2h1.8a5.6,5.6,0,0,0,2-.3,1.4,1.4,0,0,0,1-.8A2.4,2.4,0,0,0,193.2,154.3Z"/><path d="M209.1,157a.3.3,0,0,1-.3.3h-3.1v3.2h-1.1a.3.3,0,0,1-.3-.3v-3h-3a.3.3,0,0,1-.3-.3v-1.1h3.2v-3.1a.3.3,0,0,1,.3-.3h1.1v3.3H209V157Z"/><path d="M94.2,184.7a.4.4,0,0,1-.1.3H92.7a.4.4,0,0,1-.1-.3V173.5l-2.3,1h-.2c-.2,0-.2-.1-.2-.2v-.9a.2.2,0,0,1,.2-.2l2.7-1.3h1.3c.1,0,.1.1.1.2Z"/><path d="M107.5,174.9a2.3,2.3,0,0,1-.2,1.2,4.1,4.1,0,0,1-.7,1.1l-1.4,1.1-1.7,1.2a4.9,4.9,0,0,0-1.5,1.2,2.8,2.8,0,0,0-.8,1.2,3.2,3.2,0,0,0-.2,1.4v.4h6c.2,0,.4.1.4.3v1H99.6c0-.1-.1-.2-.1-.3v-1.4a5.7,5.7,0,0,1,.3-1.8,6.5,6.5,0,0,1,.9-1.6,7.5,7.5,0,0,1,1.6-1.3l1.8-1.2a11.6,11.6,0,0,0,1.5-1.3,2.1,2.1,0,0,0,.3-1.2,1.8,1.8,0,0,0-.2-1.1,1.2,1.2,0,0,0-.8-.6l-1.2-.2h-1.2l-1.3.3-1,.3H100a.4.4,0,0,1-.1-.3v-.8l.2-.2,1-.3,1.3-.3,1.3-.2a4.7,4.7,0,0,1,1.7.3,3.3,3.3,0,0,1,1.2.5,3.6,3.6,0,0,1,.7,1A6.1,6.1,0,0,1,107.5,174.9Z"/><path d="M120.8,184.7c0,.1-.1.2-.1.3h-1.4a.4.4,0,0,1-.1-.3V174.1h-.1l-2.2,4.6a2.2,2.2,0,0,1-.7.9l-.9.2-.8-.2a2.2,2.2,0,0,1-.7-.9l-2.2-4.6h-.1v10.6a.4.4,0,0,1-.1.3H110a.4.4,0,0,1-.1-.3V172.3a.5.5,0,0,1,.2-.4h1.5a.6.6,0,0,1,.6.3l2.9,6.1.2.2.3-.2,2.9-6.1.2-.3h1.8l.2.2c0,.1.1.2.1.3Z"/><path d="M131.4,175.8c0,2.6-1.6,4-5,4h-1.8v5a.4.4,0,0,1-.1.3h-1.4a.4.4,0,0,1-.1-.3V172.2a.4.4,0,0,1,.4-.4l3-.2a9.5,9.5,0,0,1,2.6.4,3.5,3.5,0,0,1,1.8,1.3,3.8,3.8,0,0,1,.6,2.2Zm-1.6,0v-.3a2.3,2.3,0,0,0-.8-1.9,4.5,4.5,0,0,0-2.6-.6h-1.8v5.2h1.8a5.6,5.6,0,0,0,2-.3,1.8,1.8,0,0,0,1.1-.8A3.3,3.3,0,0,0,129.8,175.8Z"/></svg>